# xmcd
#
# Track frame offsets:
#	150
#	17864
#	35997
#	51295
#	75096
#	96994
#	124235
#	144848
#	162844
#	183855
#	214031
#
# Disc length: 3075 seconds
#
# Revision: 1
# Processed by: cddbd v1.5.2PL0 Copyright (c) Steve Scherf et al.
# Submitted via: audiograbber 1.83.01
#
DISCID=8e0c010b
DTITLE=Coco Montoya - Dirty Deal
DYEAR=2007
DGENRE=Blues
TTITLE0=Last Dirty Deal
TTITLE1=Three Sides To Every Story
TTITLE2=Love Gotcha
TTITLE3=How Do You Sleep At Night?
TTITLE4=It Takes Time
TTITLE5=It's My Own Tears
TTITLE6=Coin Operated Love
TTITLE7=Clean Slate
TTITLE8=Put The Shoe On The Other Foot
TTITLE9=It's All Your Fault
TTITLE10=Ain't No Brakeman
EXTD=
EXTT0=
EXTT1=
EXTT2=
EXTT3=
EXTT4=
EXTT5=
EXTT6=
EXTT7=
EXTT8=
EXTT9=
EXTT10=
PLAYORDER=
